<svg xmlns="http://www.w3.org/2000/svg" viewBox="0 0 496 496"><defs><style>.cls-2{fill:#2a1f3a}</style></defs><g id="Слой_2" data-name="Слой 2"><g id="Слой_1-2" data-name="Слой 1"><path d="M456 160v-40h-40V80h-40V40h-39.95V0h-51.36L0 284.69V336h40v40h40v40h40v39.94l40 .05V496h51.33L496 211.31V160zM144 376l-88-88 136-136 88 88zm272.41-144.41l-152-152L288 56l152 152z" fill="#fed34f"/><path class="cls-2" d="M221.66 221.66l-11.32-11.32L200 220.69l-16-16-24 24a27.3 27.3 0 0 0 0 38.62l4.68 4.69a11.31 11.31 0 0 1 0 16L152 300.69 139.32 288a11.31 11.31 0 0 1 0-16l10.35-10.34-11.32-11.32L128 260.69a27.16 27.16 0 0 0-3 35l-10.68 10.67 11.32 11.32L136 307.31l16 16 24-24a27.3 27.3 0 0 0 0-38.62l-4.68-4.69a11.31 11.31 0 0 1 0-16L184 227.31 196.68 240a11.31 11.31 0 0 1 0 16l-10.35 10.34 11.32 11.32L208 267.31a27.18 27.18 0 0 0 3-35z"/><path class="cls-2" d="M192 140.69L44.69 288 144 387.31 291.31 240zM67.31 288L192 163.31 268.69 240 144 364.69zM288 44.69l-34.89 34.9 163.3 163.3 34.9-34.89zm-12.27 34.9L288 67.31 428.69 208l-12.28 12.27zM234.34 101.66l11.32-11.32 160 160-11.31 11.32zM210.34 125.66l11.32-11.32 160 160-11.31 11.32zM290.34 261.66l11.31-11.32 48 48-11.31 11.31zM266.34 285.66l11.31-11.32 48 48-11.31 11.31zM242.34 309.66l11.31-11.32 48 48-11.31 11.31zM218.34 333.65l11.31-11.31 48 48-11.31 11.31zM194.34 357.65l11.31-11.31 48 48-11.31 11.31zM170.34 381.65l11.31-11.31 48 48-11.31 11.31z"/></g></g></svg>