<svg xmlns="http://www.w3.org/2000/svg" viewBox="0 0 496 496"><defs><style>.cls-1{fill:#fed34f}.cls-2{fill:#2a1f3a}</style></defs><g id="Слой_2" data-name="Слой 2"><g id="Слой_1-2" data-name="Слой 1"><path class="cls-1" d="M384 136v48H160l-16-16H64v-32h64l24-56 16 56h32l16-32 16 32h32l32-80 32 80zM480.56 307.52c-.88-2.56-1.84-5.12-2.88-7.6a136 136 0 0 0-99.6-81.44A139.29 139.29 0 0 0 352 216a135.6 135.6 0 0 0-52.08 10.32 126.65 126.65 0 0 0-12 5.68 138.27 138.27 0 0 0-32.08 23.84 133.48 133.48 0 0 0-19.2 24.16 130.41 130.41 0 0 0-10.32 19.92 136.57 136.57 0 0 0 0 104.16 133.16 133.16 0 0 0 22.16 36l.08-.08h65a96.1 96.1 0 0 1 1-176.48A97.13 97.13 0 0 1 352 256a96 96 0 0 1 38.48 184h65l.08.08a133.16 133.16 0 0 0 22.16-36 136.62 136.62 0 0 0 2.88-96.56z"/><path class="cls-2" d="M496 248C496 111.25 384.74 0 248 0S0 111.25 0 248s111.26 248 248 248a248.35 248.35 0 0 0 59.27-7.21A143.29 143.29 0 0 0 352 496c79.4 0 144-64.6 144-144a143.63 143.63 0 0 0-7.2-44.73A248.85 248.85 0 0 0 496 248zm-16.41 112a127.43 127.43 0 0 1-6.59 33.46l-14.44-6-6.13 14.79 14.41 6A128.72 128.72 0 0 1 451.76 432H252.24a128.72 128.72 0 0 1-15.06-23.79l14.41-6-6.13-14.79-14.44 6a126.94 126.94 0 0 1-6.61-33.42H240v-16h-15.59a127.43 127.43 0 0 1 6.59-33.46l14.44 6 6.13-14.79-14.41-6a128.86 128.86 0 0 1 19-28.32l11 11 11.32-11.32-11-11a128.69 128.69 0 0 1 28.33-19l6 14.41 14.79-6.13-6-14.44a127 127 0 0 1 33.4-6.55V240h16v-15.59a127.35 127.35 0 0 1 33.45 6.59l-6 14.44 14.79 6.13 6-14.4a128.26 128.26 0 0 1 28.33 19l-11 11 11.32 11.31 11-11a128.74 128.74 0 0 1 19 28.32l-14.41 6 6.13 14.78 14.44-6a126.94 126.94 0 0 1 6.54 33.42H464v16h15.59zM72 176h68.69l16 16H376v8a23.85 23.85 0 0 1-2.16 9.84A139.63 139.63 0 0 0 286.33 224H96a24 24 0 0 1-24-24zm189.69 64a145.24 145.24 0 0 0-29.35 32H160v-32zM480 248a232.38 232.38 0 0 1-2.52 33.59 144.45 144.45 0 0 0-87.78-68.41A39.59 39.59 0 0 0 392 200V66.3c53.56 42.54 88 108.16 88 181.7zM248 16a230.64 230.64 0 0 1 128 38.63V176H163.31l-16-16H72V97.11A231.46 231.46 0 0 1 248 16zm0 464C120.07 480 16 375.92 16 248a230.71 230.71 0 0 1 40-130.08V200a40.05 40.05 0 0 0 40 40h48v32h-32v16h111.19a143.38 143.38 0 0 0 58.4 189.48A234 234 0 0 1 248 480zm19.63-32h168.75a127.24 127.24 0 0 1-168.75 0z"/><path class="cls-2" d="M88 192h16v16H88zM120 192h16v16h-16zM393.14 267.88l-36.35 60.6A24.47 24.47 0 0 0 352 328a24.29 24.29 0 1 0 18.44 8.82l36.42-60.7zM352 360a8 8 0 1 1 8-8 8 8 0 0 1-8 8zM150.49 103.83L162 144h43l11-22.11L227.05 144h42.36L296 77.54 322.59 144H360v-16h-26.59L296 34.46 258.59 128H237l-21-41.89L195.05 128H174l-20.49-71.83L122.73 128H88v16h45.27z"/></g></g></svg>