<svg xmlns="http://www.w3.org/2000/svg" viewBox="0 0 566.93 566.93"><defs><style>.cls-1{fill:#fed34f}.cls-2{fill:#2a1f3a}</style></defs><g id="Слой_2" data-name="Слой 2"><g id="Слой_1-2" data-name="Слой 1"><path class="cls-1" d="M283.46 0A91.54 91.54 0 0 0 192 91.44v45.72h9.15a27.43 27.43 0 0 1 27.43-27.43v-9.15a66.21 66.21 0 0 0 46.83-19.39l8-8 8 8a66.21 66.21 0 0 0 46.83 19.39v9.15a27.43 27.43 0 0 1 27.43 27.43h9.14V91.44A91.54 91.54 0 0 0 283.46 0zM128 274.32a91.54 91.54 0 0 0-91.44 91.44v45.72h9.14a27.43 27.43 0 0 1 27.43-27.43v-18.29h109.75v18.29a27.43 27.43 0 0 1 27.43 27.43h9.15v-45.72A91.54 91.54 0 0 0 128 274.32zM438.91 274.32a91.54 91.54 0 0 0-91.44 91.44v45.72h9.15a27.43 27.43 0 0 1 27.43-27.43 18.28 18.28 0 0 1 18.29-18.29h73.15a18.29 18.29 0 0 1 18.29 18.29 27.43 27.43 0 0 1 27.43 27.43h9.14v-45.72a91.54 91.54 0 0 0-91.44-91.44z"/><path class="cls-2" d="M411.48 267.73a45.84 45.84 0 0 0-36.76-44.84L320 212v-13.25a64.47 64.47 0 0 0 21.32-25.32 36.39 36.39 0 0 0 6.11-71.55V91.44h-9.14A56.68 56.68 0 0 1 298 74.72l-14.51-14.5L269 74.72a56.68 56.68 0 0 1-40.4 16.72h-9.14v10.44a36.39 36.39 0 0 0 6.11 71.55 64.39 64.39 0 0 0 21.32 25.32V212l-54.68 10.93a45.85 45.85 0 0 0-36.76 44.84v24.88h256zM210.31 137.16a18.25 18.25 0 0 1 9.15-15.75v24.89a63.87 63.87 0 0 0 .37 6.81 18.24 18.24 0 0 1-9.52-15.95zm146.31 0a18.24 18.24 0 0 1-9.52 16 63.87 63.87 0 0 0 .37-6.81v-24.94a18.25 18.25 0 0 1 9.15 15.75zm-118.88 9.14v-37.12a74.74 74.74 0 0 0 44.15-21.53l1.57-1.57 1.54 1.57a74.69 74.69 0 0 0 44.14 21.53v37.12a45.72 45.72 0 0 1-91.44 0zm45.72 64a63.47 63.47 0 0 0 18.29-2.7v8.06L283.46 234l-18.28-18.29v-8.06a63.45 63.45 0 0 0 18.28 2.66zm109.73 64H173.74v-6.59a27.5 27.5 0 0 1 22-26.9L253 229.39l30.44 30.43 30.44-30.44 57.24 11.44a27.53 27.53 0 0 1 22.05 26.91zM219.27 497.22l-54.68-10.94v-13.21a64.31 64.31 0 0 0 21.32-25.32A36.39 36.39 0 0 0 192 376.2v-19.58H64v19.58a36.4 36.4 0 0 0 6.12 71.56 64.32 64.32 0 0 0 21.31 25.31v13.21l-54.67 10.94A45.83 45.83 0 0 0 0 542.05v24.88h256v-24.88a45.83 45.83 0 0 0-36.73-44.83zm-18.1-85.74a18.24 18.24 0 0 1-9.52 15.95 63.87 63.87 0 0 0 .37-6.81v-24.89a18.23 18.23 0 0 1 9.15 15.75zm-146.31 0A18.25 18.25 0 0 1 64 395.73v24.89a66.61 66.61 0 0 0 .37 6.81 18.24 18.24 0 0 1-9.51-15.95zm27.44 9.14V374.9h91.44v45.72a45.72 45.72 0 0 1-91.44 0zm45.72 64a63.79 63.79 0 0 0 18.28-2.69V490L128 508.28 109.73 490v-8.05a63.86 63.86 0 0 0 18.27 2.68zm109.72 64H18.29v-6.59a27.5 27.5 0 0 1 22.05-26.9l57.24-11.44L128 534.14l30.44-30.44 57.23 11.44a27.53 27.53 0 0 1 22.05 26.91zM530.17 497.22l-54.68-10.94v-13.21a64.37 64.37 0 0 0 21.31-25.32 36.45 36.45 0 0 0 4.7-72 27.37 27.37 0 0 0-26-19.14h-73.16a27.38 27.38 0 0 0-26 19.14 36.46 36.46 0 0 0 4.7 72 64.27 64.27 0 0 0 21.32 25.31v13.21l-54.68 10.94a45.83 45.83 0 0 0-36.76 44.83v24.88h256v-24.87a45.83 45.83 0 0 0-36.75-44.83zm-18.1-85.74a18.24 18.24 0 0 1-9.52 15.95 66.61 66.61 0 0 0 .37-6.81v-24.89a18.25 18.25 0 0 1 9.15 15.75zm-146.31 0a18.24 18.24 0 0 1 9.14-15.75v24.89a63.87 63.87 0 0 0 .38 6.81 18.24 18.24 0 0 1-9.52-15.95zm27.43 9.14v-36.57a9.15 9.15 0 0 1 9.15-9.15h73.15a9.15 9.15 0 0 1 9.14 9.15v36.57a45.72 45.72 0 1 1-91.44 0zm45.72 64a63.86 63.86 0 0 0 18.29-2.69v11.84a18.29 18.29 0 0 1-36.58 0v-11.83a63.91 63.91 0 0 0 18.29 2.69zm109.73 64H329.18v-6.59a27.51 27.51 0 0 1 22.06-26.9l52.91-10.58a36.33 36.33 0 0 0 69.53 0l52.91 10.58a27.51 27.51 0 0 1 22 26.9zM320.04 429.77v-18.29h-27.43v-27.43h-18.29v27.43h-27.43v18.29h27.43v27.43h18.29v-27.43h27.43zM274.32 347.47h18.29v18.29h-18.29zM274.32 310.9h18.29v18.29h-18.29zM91.44 164.59h18.29v-27.43h27.43v-18.29h-27.43V91.44H91.44v27.43H64.01v18.29h27.43v27.43zM91.44 182.88h18.29v18.29H91.44zM91.44 219.46h18.29v18.29H91.44zM457.2 164.59h18.29v-27.43h27.43v-18.29h-27.43V91.44H457.2v27.43h-27.43v18.29h27.43v27.43zM457.2 182.88h18.29v18.29H457.2zM457.2 219.46h18.29v18.29H457.2z"/></g></g></svg>