<svg xmlns="http://www.w3.org/2000/svg" viewBox="0 0 496 496"><defs><style>.cls-1{fill:#fed34f}</style></defs><g id="Слой_2" data-name="Слой 2"><g id="Слой_1-2" data-name="Слой 1"><path class="cls-1" d="M192 208h90.34A86.84 86.84 0 0 0 360 160a69.53 69.53 0 0 1-52.82-24.3l-2.57-3A82.2 82.2 0 0 0 160 186.19V240a32 32 0 0 1 32-32z"/><path d="M297.88 296H496V191.81a39.74 39.74 0 0 0-28.5-38.31L416 138.05v-12.16A56 56 0 0 0 440 80V56a56 56 0 0 0-112 0v24a55.93 55.93 0 0 0 24 45.89v12.16l-21.37 6.41a61 61 0 0 1-17.37-14l-2.58-3a90.16 90.16 0 0 0-148 16.16L144 138.05v-12.16A56 56 0 0 0 168 80V56a56 56 0 0 0-112 0v24a55.93 55.93 0 0 0 24 45.89v12.16L28.5 153.5A39.74 39.74 0 0 0 0 191.81V296h198.12a65 65 0 0 0 9.88 9.88v15.76l-60.59 14A55.73 55.73 0 0 0 104 390.18V496h288V390.18a55.75 55.75 0 0 0-43.41-54.56l-60.59-14v-15.74a65 65 0 0 0 9.88-9.88zM312 256v-38.28c8.61 3.26 15 10.84 15.89 19.89a23.65 23.65 0 0 1-16.23 25A65.38 65.38 0 0 0 312 256zm150.89-87.18a23.85 23.85 0 0 1 17.11 23V280h-32v-88h-16v88H307.29l.14-.36a39.53 39.53 0 0 0 17.1-73.5 94.18 94.18 0 0 0 36.26-31.7l15.55 51.86L384 224l7.66 2.3 21.71-72.3zM344 80V56a40 40 0 0 1 80 0v24a40 40 0 0 1-80 0zm40 56a55.64 55.64 0 0 0 16-2.36v9.18l-16 53.34-16-53.34v-9.18a55.64 55.64 0 0 0 16 2.36zm-141.81-24a74.14 74.14 0 0 1 56.33 25.9l2.58 3a77.29 77.29 0 0 0 45.51 25.83A78.28 78.28 0 0 1 282.34 200h-89a42 42 0 0 0-25.34 8.68v-22.49A74.28 74.28 0 0 1 242.19 112zm-57.85 150.61a23.65 23.65 0 0 1-16.23-25c.87-9.05 7.28-16.64 15.89-19.89V256a65.74 65.74 0 0 0 .34 6.61zM72 80V56a40 40 0 0 1 80 0v24a40 40 0 0 1-80 0zm40 56a55.64 55.64 0 0 0 16-2.36v9.18l-16 53.34-16-53.34v-9.18a55.64 55.64 0 0 0 16 2.36zM64 280v-88H48v88H16v-88.19a23.85 23.85 0 0 1 17.11-23L82.64 154l21.7 72.34L112 224l7.66 2.3 21.71-72.3 15 4.51a89.54 89.54 0 0 0-4.37 27.68V240h.22a39.2 39.2 0 0 0 36.37 39.64c0 .12.08.24.13.36zm136-24v-40h82.34a96.54 96.54 0 0 0 13.66-1v41a48 48 0 0 1-96 0zm81.82 80.63l2.41.55-9 25.23-13.9-10.41zm-70 .55l2.4-.55L234.67 352l-13.88 10.41zm164.22 53V480H336v-88h-16v88H176v-88h-16v88h-40v-89.82a39.82 39.82 0 0 1 31-39l45.08-10.41 36.38 101.89 15.07-5.39-21.12-59.12L248 362l21.59 16.18-21.12 59.13 15.07 5.39 36.38-101.89 45.08 10.4a39.82 39.82 0 0 1 31 38.97zM272 324l-24 18-24-18v-8.71a63.5 63.5 0 0 0 48 0z" fill="#2a1f3a"/><path class="cls-1" d="M192 432h112v48H192zM80 216h64v64H80zM352 216h64v64h-64z"/></g></g></svg>