<svg xmlns="http://www.w3.org/2000/svg" viewBox="0 0 489 447.13"><defs><style>.cls-2{fill:#2a1f3a}</style></defs><g id="Слой_2" data-name="Слой 2"><g id="Слой_1-2" data-name="Слой 1"><path d="M244.5 31.94c-105.83 0-191.63 85.79-191.63 191.62s85.8 191.63 191.63 191.63 191.63-85.79 191.63-191.63S350.33 31.94 244.5 31.94zm0 343.33a151.71 151.71 0 1 1 151.71-151.71A151.7 151.7 0 0 1 244.5 375.27z" fill="#fed34f"/><path class="cls-2" d="M244.5 16a207.21 207.21 0 0 1 206.29 184.49l1.82 16.51L489 180.62l-11.29-11.29-13.41 13.4A223.16 223.16 0 0 0 244.5 0c-5.5 0-11.1.2-16.5.6l1.16 15.93c5.02-.38 10.2-.53 15.34-.53zM244.5 431.16A207.22 207.22 0 0 1 38.21 246.64l-1.82-16.52L0 266.5l11.29 11.3 13.4-13.4A223.18 223.18 0 0 0 244.5 447.13c5.54 0 11.12-.2 16.56-.61l-1.18-15.92c-5.05.4-10.22.56-15.38.56z"/><path class="cls-2" d="M244.5 63.88c-88.05 0-159.69 71.63-159.69 159.68s71.64 159.69 159.69 159.69 159.69-71.63 159.69-159.69S332.55 63.88 244.5 63.88zm8 303v-39.52h-16v39.52a143.67 143.67 0 0 1-135.31-135.33h39.51v-16h-39.51a143.67 143.67 0 0 1 135.33-135.3v39.52h16V80.25a143.67 143.67 0 0 1 135.29 135.33H348.3v16h39.51a143.67 143.67 0 0 1-135.32 135.3z"/><path class="cls-2" d="M252.49 201.08v-65.34h-16v65.34A23.89 23.89 0 1 0 267 231.55h33.41v-16H267a23.92 23.92 0 0 0-14.51-14.47zm-8 30.47a8 8 0 1 1 8-8 8 8 0 0 1-7.99 8zM193.05 5.86l15.65-3.12 3.12 15.66-15.66 3.12zM151.57 20.07L166.33 14l6.1 14.75-14.75 6.11zM113.66 42.11l13.28-8.87 8.87 13.28-13.29 8.87zM80.77 71.13l11.29-11.29 11.29 11.29-11.29 11.29zM54.16 106L63 92.72l13.27 8.88-8.87 13.27zM34.89 145.38L41 130.63l14.75 6.11-6.11 14.75zM23.68 187.78l3.11-15.67 15.66 3.12-3.11 15.66zM277.17 428.7l15.65-3.12 3.12 15.66-15.65 3.12zM316.58 418.41l14.75-6.11 6.11 14.76-14.76 6.1zM353.22 400.61l13.29-8.88 8.86 13.27-13.28 8.87zM385.64 376l11.29-11.29L408.22 376l-11.29 11.29zM412.7 345.55l8.87-13.29 13.28 8.87-8.85 13.29zM433.24 310.39l6.11-14.75 14.75 6.1-6.1 14.76zM446.54 271.92l3.12-15.65 15.66 3.12L462.2 275z"/></g></g></svg>