<svg xmlns="http://www.w3.org/2000/svg" viewBox="0 0 496 496"><defs><style>.cls-1{fill:#fed34f}.cls-2{fill:#2a1f3a}</style></defs><g id="Слой_2" data-name="Слой 2"><g id="Слой_1-2" data-name="Слой 1"><path class="cls-1" d="M176 0A120.13 120.13 0 0 0 56 120v64h8a32 32 0 0 1 32-32h.4a35.86 35.86 0 0 1 57.2-24.8L176 144l22.4-16.8a35.86 35.86 0 0 1 57.2 24.8h.4a32 32 0 0 1 32 32h8v-64A120.13 120.13 0 0 0 176 0zM464 464h-80v-80h80zM368 464h-64v-80h64zM416 336v-64H304v80h152v-16zM408 224a88 88 0 1 1 88-88 88.1 88.1 0 0 1-88 88z"/><path class="cls-2" d="M443.31 240H272v63.57l-40-13.34v-22.41a88.12 88.12 0 0 0 28.71-44.3 39.81 39.81 0 0 0 1.75-78.86 43.94 43.94 0 0 0-68.86-23.85L176 134l-17.59-13.19a43.95 43.95 0 0 0-68.87 23.85 39.81 39.81 0 0 0 1.75 78.86 88.12 88.12 0 0 0 28.71 44.3v22.41l-81.71 27.25A55.92 55.92 0 0 0 0 370.59V448h272v48h224V292.69zM280 184a24 24 0 0 1-16.34 22.63c.17-2.2.34-4.39.34-6.63v-38.53A24 24 0 0 1 280 184zm-208 0a24 24 0 0 1 16-22.53V200c0 2.24.17 4.43.34 6.63A24 24 0 0 1 72 184zm376 83.31L468.69 288H448zm-209.23 42l-12.2 60.95L188.34 343l37.82-37.83zM104 200v-44a28 28 0 0 1 44.81-22.4L176 154l27.2-20.4A28 28 0 0 1 248 156v44a72 72 0 0 1-144 0zm72 88a87.43 87.43 0 0 0 40-9.71v14.4l-40 40-40-40v-14.4a87.43 87.43 0 0 0 40 9.71zm-50.16 17.15L163.66 343l-38.23 27.3-12.2-60.95zM80 432v-48H64v48H16v-61.41a39.94 39.94 0 0 1 27.35-37.94l54.59-18.19 16.65 83.24L176 353.83l61.43 43.87 16.64-83.24 17.93 6V432zm208 48V256h144v48h48v176z"/><path class="cls-2" d="M304 448h64v16h-64zM304 416h64v16h-64zM304 384h64v16h-64zM304 272h16v16h-16zM336 272h80v16h-80zM304 304h112v16H304zM448 336h16v16h-16zM304 336h128v16H304zM493.89 69.41l-11.78-10.82-82.95 90.49L365 121.75l-10 12.5 45.84 36.67z"/></g></g></svg>