<svg xmlns="http://www.w3.org/2000/svg" viewBox="0 0 510.23 510.24"><defs><style>.cls-1{fill:#fed34f}.cls-2{fill:#2a1f3a}</style></defs><g id="Слой_2" data-name="Слой 2"><g id="Слой_1-2" data-name="Слой 1"><path class="cls-1" d="M13.2 50.61h321v41.57h-321zM189.28 477.32H74.07v-8.23a33 33 0 0 0-32.92-32.92h-8.23V214h197.51v222.2h-8.23a33 33 0 0 0-32.92 32.92v8.23z"/><path class="cls-2" d="M321 230.43a24.72 24.72 0 0 0 24.69-24.69v-181A24.72 24.72 0 0 0 321 0H24.69A24.72 24.72 0 0 0 0 24.69v485.55h263.35V230.43zm8.18-148.13H16.46V57.61h312.72zM24.69 16.46H321a8.23 8.23 0 0 1 8.23 8.23v16.46H16.46V24.69a8.24 8.24 0 0 1 8.23-8.23zm-8.23 82.3h312.72v107A8.23 8.23 0 0 1 321 214H24.69a8.24 8.24 0 0 1-8.23-8.23v-107zm172.82 181.05a57.61 57.61 0 1 1-87.07-49.38h58.93a57.6 57.6 0 0 1 28.14 49.38zm57.61 214H16.46v-264.9a24.18 24.18 0 0 0 8.23 1.52h52a74.07 74.07 0 1 0 109.92 0h60.26v263.35z"/><path class="cls-2" d="M246.89 197.51a32.54 32.54 0 0 0 16.48-4.57 32.52 32.52 0 0 0 16.44 4.57 32.92 32.92 0 0 0 0-65.84 32.52 32.52 0 0 0-16.44 4.57 32.51 32.51 0 0 0-16.48-4.57 32.92 32.92 0 1 0 0 65.84zm49.38-32.92a16.46 16.46 0 1 1-16.46-16.46 16.48 16.48 0 0 1 16.46 16.46zm-49.38-16.46a15.94 15.94 0 0 1 4.23.65 31.66 31.66 0 0 0 0 31.62 15.55 15.55 0 0 1-4.23.65 16.46 16.46 0 1 1 0-32.92zM395 279.81A115.21 115.21 0 1 0 510.23 395 115.34 115.34 0 0 0 395 279.81zm0 214A98.76 98.76 0 1 1 493.78 395 98.87 98.87 0 0 1 395 493.78zM386.79 41.15v172.82h16.46V41.15l9.87 13.17 13.17-9.88-31.27-41.7-31.27 41.7 13.16 9.88 9.88-13.17zM386.79 230.43h16.46v24.69h-16.46zM469.09 90.53v148.13h16.46V90.53l9.87 13.16 13.17-9.87-31.28-41.7-31.27 41.7 13.17 9.87 9.88-13.16zM469.09 255.12h16.46v24.69h-16.46z"/><path class="cls-2" d="M410.66 410.63a41.82 41.82 0 0 0 0-83.64h-49.6v68.81h-17.49v14.83h17.49v16.27h-17.49v13.27h17.49v24.88h15.61v-24.88h50.54V426.9h-50.54v-16.27zm-34-14.83v-54h34a25 25 0 0 1 18.52 7.86 27.51 27.51 0 0 1 0 38.16 24.91 24.91 0 0 1-18.52 8z"/></g></g></svg>