<svg xmlns="http://www.w3.org/2000/svg" viewBox="0 0 500 496.69"><defs><style>.cls-1{fill:#fff;}.cls-2{fill:#fed34f;}</style></defs><title>logo</title><g id="Слой_2" data-name="Слой 2"><g id="Слой_1-2" data-name="Слой 1"><path class="cls-1" d="M464.72,156.55,308.18,0H285.57L177,108.59v70.56l32.66,32.65L197,224.48,121,148.55,108.49,161.1A66.46,66.46,0,0,0,89.15,208a65.67,65.67,0,0,0,19.34,46.51l29.22,29.22-22.32,22.32,11.3,11.3L197,247.08l52.64,52.64L179.33,370l11.3,11.3,94.26-94.25.68.68h70.56l28.67-28.66,22.32,22.33,11.3-11.31L384.8,236.47l-35.28,35.28H292.19L193,172.53V115.21L292.19,16h9.37l8,8-15,15a46.56,46.56,0,0,0,0,65.87l65.31,65.32a46.59,46.59,0,0,0,65.88,0l15-15,8,8v9.37l-35.28,35.28,33.62,33.62,11.3-11.3-22.32-22.32,28.66-28.66ZM149,272.44l-29.22-29.22A49.79,49.79,0,0,1,105.13,208a50.46,50.46,0,0,1,14.66-35.56l1.25-1.25,64.63,64.63Zm111.9,16-52.64-52.64L221,223.11l52.64,52.63ZM414.42,158.89c-11.56,11.55-31.71,11.55-43.27,0L305.84,93.57a30.6,30.6,0,0,1,0-43.27l15-15L429.44,143.87Z"/><path class="cls-1" d="M36.8,472.57,19.29,478.4l-1-1,5.83-17.51,74.6-74.59L87.41,374,10.15,451.26,0,481.71l15,15,30.45-10.15,77.26-77.26L111.39,398Z"/><path class="cls-2" d="M340.15,255.76H301l-92-92.61V124.58l40.25-40.26L380.4,215.51Z"/><path class="cls-2" d="M153,450.89,45.8,343.68l40-40a27.21,27.21,0,0,1,38.5,0L193,372.35a27.26,27.26,0,0,1,0,38.58Z"/><path class="cls-2" d="M424.76,323l-35.28-35.28,75.24-75.24L500,247.77Z"/><rect class="cls-1" x="382.99" y="479.19" width="107" height="17.5"/><rect class="cls-1" x="472.5" y="389.69" width="17.5" height="107"/><rect class="cls-1" width="107" height="17.5"/><rect class="cls-1" width="17.5" height="107"/></g></g></svg>